<?xml version="1.0" encoding="UTF-8" standalone="no"?>
<svg width="128" height="128" viewBox="0 0 128 128" xmlns="http://www.w3.org/2000/svg">
  <!-- Background circle -->
  <circle cx="64" cy="64" r="60" fill="#4285f4" />
  
  <!-- Nix snowflake simplified -->
  <g fill="white" transform="translate(64, 64) scale(0.7)">
    <!-- Central hexagon -->
    <polygon points="0,-30 26,-15 26,15 0,30 -26,15 -26,-15" fill="#ffffff" />
    
    <!-- Outer lines representing the Nix snowflake -->
    <rect x="-5" y="-60" width="10" height="30" />
    <rect x="-5" y="30" width="10" height="30" />
    
    <rect x="-5" y="-60" width="10" height="30" transform="rotate(60, 0, 0)" />
    <rect x="-5" y="30" width="10" height="30" transform="rotate(60, 0, 0)" />
    
    <rect x="-5" y="-60" width="10" height="30" transform="rotate(120, 0, 0)" />
    <rect x="-5" y="30" width="10" height="30" transform="rotate(120, 0, 0)" />
  </g>
  
  <!-- Copy symbol -->
  <g transform="translate(85, 85) scale(0.25)">
    <rect x="-40" y="-40" width="60" height="80" fill="white" stroke="#4285f4" stroke-width="8" />
    <rect x="-20" y="-60" width="60" height="80" fill="white" stroke="#4285f4" stroke-width="8" />
  </g>
</svg>
